<svg xmlns="http://www.w3.org/2000/svg" version="1.1" xmlns:xlink="http://www.w3.org/1999/xlink" xmlns:svgjs="http://svgjs.dev/svgjs" width="2000" height="595" viewBox="0 0 2000 595"><g transform="matrix(1,0,0,1,-1.2121212121213603,-0.6023440716907089)"><svg viewBox="0 0 396 118" data-background-color="#ffffff" preserveAspectRatio="xMidYMid meet" height="595" width="2000" xmlns="http://www.w3.org/2000/svg" xmlns:xlink="http://www.w3.org/1999/xlink"><g id="tight-bounds" transform="matrix(1,0,0,1,0.24000000000003752,0.11945647136050752)"><svg viewBox="0 0 395.5199999999999 117.76108705727901" height="117.76108705727901" width="395.5199999999999"><g><svg viewBox="0 0 651.7551599999999 194.05187130054313" height="117.76108705727901" width="395.5199999999999"><g transform="matrix(1,0,0,1,256.23516,7.184843097080076)"><svg viewBox="0 0 395.52 179.68218510638297" height="179.68218510638297" width="395.52"><g id="textblocktransform"><svg viewBox="0 0 395.52 179.68218510638297" height="179.68218510638297" width="395.52" id="textblock"><g><svg viewBox="0 0 395.52 179.68218510638297" height="179.68218510638297" width="395.52"><rect width="395.52" height="179.68218510638297" x="0" y="0" opacity="1" fill="#0b5dd6" data-fill-palette-color="tertiary"></rect><g transform="matrix(1,0,0,1,23.607599999999998,23.607599999999998)"><svg width="348.3048" viewBox="-12.5 -32 189.7 68.35" height="132.466985106383" data-palette-color="#ffffff"><svg></svg><svg></svg><g class="wordmark-text-0" data-fill-palette-color="quaternary" id="text-0"><path d="M37.1-18.2l-2.95 16.7c-4.067 1.5-8.15 2.25-12.25 2.25-4.1 0-7.057-0.817-8.87-2.45-1.82-1.633-2.73-4.15-2.73-7.55v0c0-1.433 0.233-3.55 0.7-6.35v0c1-5.8 2.767-9.983 5.3-12.55 2.533-2.567 6.733-3.85 12.6-3.85v0c1.267 0 2.85 0.133 4.75 0.4 1.9 0.267 3.3 0.567 4.2 0.9v0l-2.75 7.65c-2.5-0.467-4.79-0.7-6.87-0.7-2.087 0-3.58 0.167-4.48 0.5-0.9 0.333-1.433 1-1.6 2v0l-2.45 14.15h3.15c1.133 0 1.977-0.127 2.53-0.38 0.547-0.247 0.903-0.82 1.07-1.72v0l0.25-1.35h-2.4l1.35-7.65zM9.75-16.85l-0.15 1c-0.067 0.267-0.133 0.633-0.2 1.1v0l-19.65-2.1zM-10.8-12.05h19.85c-0.1 0.767-0.15 1.467-0.15 2.1v0zM-9.05-21.65h20l-0.6 2.05zM-10.15-7.25h19.1c0.133 0.933 0.25 1.633 0.35 2.1v0zM-6.7-26.45h19.7c-0.467 0.867-0.8 1.533-1 2v0zM-5.35-2.4h15.8c0.433 0.767 0.933 1.383 1.5 1.85v0zM0.2-31.25h17.55c-0.967 0.6-1.717 1.15-2.25 1.65v0zM49-12.05l-0.4 2.25-21.2-2.25zM49.85-16.85l-0.4 2.25-21.2-2.25zM50.7-21.65l-0.4 2.25-21.2-2.25zM51.5-26.45l-0.35 2.25-21.2-2.25zM27.25-7.25h21.15v1c0 0.567 0.017 0.983 0.05 1.25v0zM50.35-0.15v0l-21.2-2.25h19.75c0.367 0.933 0.85 1.683 1.45 2.25zM58.1-7h2.5c0.9 0 1.527-0.11 1.88-0.33 0.347-0.213 0.587-0.737 0.72-1.57v0l3.15-17.55h8.4l-2.6 14.9c-0.8 4.667-2.09 7.857-3.87 9.57-1.787 1.72-4.83 2.58-9.13 2.58v0c-3.433 0-5.833-0.51-7.2-1.53-1.367-1.013-2.05-2.787-2.05-5.32v0c0-1.4 0.183-3.167 0.55-5.3v0l2.65-14.9h8.4zM83.7-0.15l-20.9-2.25h21.6zM66.65-21.65h21.55c-0.2 0.533-0.417 1.283-0.65 2.25v0zM86.95-15v0 0.4l-21.2-2.25h21.3c-0.067 0.8-0.1 1.417-0.1 1.85zM86-7.25l-0.7 2.2-20.85-2.2zM70.1-26.45h21.55c-0.9 0.667-1.583 1.367-2.05 2.1v0zM67.7-12.05h19.7c0.3 0.867 0.783 1.617 1.45 2.25v0zM109.75-25.9l-2.4 7.3c-2.267-0.533-4.2-0.8-5.8-0.8-1.6 0-2.783 0.05-3.55 0.15v0l-0.25 1.45 2.5 0.3c5.367 0.7 8.05 2.917 8.05 6.65v0c0 0.433-0.1 1.24-0.3 2.42-0.2 1.187-0.533 2.33-1 3.43-0.467 1.1-1.057 1.99-1.77 2.67-0.72 0.687-1.42 1.237-2.1 1.65-0.687 0.42-1.563 0.713-2.63 0.88v0c-1.667 0.267-3.89 0.4-6.67 0.4-2.787 0-5.597-0.383-8.43-1.15v0l2.45-7.4c2.6 0.733 4.877 1.1 6.83 1.1 1.947 0 3.32-0.05 4.12-0.15v0l0.25-1.6-3.15-0.35c-2.7-0.3-4.617-0.933-5.75-1.9-1.133-0.967-1.7-2.35-1.7-4.15v0c0-0.667 0.083-1.5 0.25-2.5v0c0.667-3.567 1.867-6.033 3.6-7.4 1.733-1.367 4.377-2.05 7.93-2.05 3.547 0 6.72 0.35 9.52 1.05zM143.3-26.45l-1.35 7.5h-5.4l-3.3 18.95h-8.8l3.3-18.95h-5.55l1.35-7.5zM123.35-2.4l-0.4 2.25-21.2-2.25zM125.05-12.05l-0.4 2.25-21.2-2.25zM125.9-16.85l-0.4 2.25-21.2-2.25zM121.1-21.65l-0.4 2.25-21.2-2.25zM121.9-26.45l-0.35 2.25-21.2-2.25zM124.2-7.25l-0.4 2.25-21.2-2.25zM167.2-26.95v0c3.6 0 6.167 0.69 7.7 2.07 1.533 1.387 2.3 3.547 2.3 6.48v0c0 1.433-0.183 3.167-0.55 5.2v0c-0.833 4.8-2.3 8.3-4.4 10.5-2.1 2.2-5.4 3.3-9.9 3.3v0c-3.533 0-6.05-0.693-7.55-2.08-1.5-1.38-2.25-3.52-2.25-6.42v0c0-1.5 0.183-3.267 0.55-5.3v0c0.833-4.8 2.283-8.293 4.35-10.48 2.067-2.18 5.317-3.27 9.75-3.27zM160.85-7h2.95c0.967 0 1.69-0.117 2.17-0.35 0.487-0.233 0.813-0.75 0.98-1.55v0l1.9-10.45h-3.05c-0.933 0-1.657 0.117-2.17 0.35-0.52 0.233-0.83 0.733-0.93 1.5v0zM131.4-12.05h19.95c-0.133 1.033-0.217 1.733-0.25 2.1v0zM132.3-16.85h20l-0.45 2.1zM131.6-7.25h19.45c0 0.533 0.067 1.233 0.2 2.1v0zM134.3-21.65h19.75c-0.4 0.867-0.683 1.533-0.85 2v0zM135.95-2.4h16.15c0.4 0.8 0.833 1.417 1.3 1.85v0zM141-26.45h17.4c-0.8 0.467-1.483 1.017-2.05 1.65v0z" fill="#ffffff" fill-rule="nonzero" stroke="none" stroke-width="1" stroke-linecap="butt" stroke-linejoin="miter" stroke-miterlimit="10" stroke-dasharray="" stroke-dashoffset="0" font-family="none" font-weight="none" font-size="none" text-anchor="none" style="mix-blend-mode: normal" data-fill-palette-color="quaternary" opacity="1"></path><path transform="translate(0,35.75)" d="M32.55-19.05l-1.3 7.25h-9.5l-0.65 3.8h11.65l-1.4 8h-21.15l5.5-31.25h20.9l-2.6 8h-10.25l-0.7 4.2zM9.1-2.4l-0.4 2.25-21.2-2.25zM10.8-12.05l-0.4 2.25-21.2-2.25zM11.65-16.85l-0.4 2.25-21.2-2.25zM12.5-21.65l-0.4 2.25-21.2-2.25zM13.3-26.45l-0.35 2.25-21.2-2.25zM9.95-7.25l-0.4 2.25-21.2-2.25zM14.15-31.25l-0.4 2.25-21.15-2.25zM71.35 0h-8.75l-0.2-4.05h-6.3l-1.55 4.05h-8.65l11.1-26.45h12.4zM58.75-11.2h3.65v-7.6h-0.7zM45.25-2.4l-0.95 2.2-20.5-2.2zM47.3-7.25l-0.95 2.2-20.5-2.2zM49.3-12.05l-0.9 2.2-20.5-2.2zM51.35-16.85l-0.95 2.2-20.45-2.2zM53.35-21.65l-0.9 2.2-20.45-2.2zM55.35-26.45l-0.9 2.15-20.4-2.15zM105.4-26.45l-1.35 7.5h-5.4l-3.3 18.95h-8.8l3.3-18.95h-5.55l1.35-7.5zM85.45-2.4l-0.4 2.25-21.2-2.25zM87.15-12.05l-0.4 2.25-21.2-2.25zM88-16.85l-0.4 2.25-21.2-2.25zM83.2-21.65l-0.4 2.25-21.2-2.25zM84-26.45l-0.35 2.25-21.2-2.25zM86.3-7.25l-0.4 2.25-21.2-2.25zM112.85-0.15l-20.9-2.25h21.6zM95.8-21.65h21.55c-0.2 0.533-0.417 1.283-0.65 2.25v0zM116.1-15v0 0.4l-21.2-2.25h21.3c-0.067 0.8-0.1 1.417-0.1 1.85zM115.15-7.25l-0.7 2.2-20.85-2.2zM99.25-26.45h21.55c-0.9 0.667-1.583 1.367-2.05 2.1v0zM96.85-12.05h19.7c0.3 0.867 0.783 1.617 1.45 2.25v0zM138.9-25.9l-2.4 7.3c-2.267-0.533-4.2-0.8-5.8-0.8-1.6 0-2.783 0.05-3.55 0.15v0l-0.25 1.45 2.5 0.3c5.367 0.7 8.05 2.917 8.05 6.65v0c0 0.433-0.1 1.24-0.3 2.42-0.2 1.187-0.533 2.33-1 3.43-0.467 1.1-1.057 1.99-1.77 2.67-0.72 0.687-1.42 1.237-2.1 1.65-0.687 0.42-1.563 0.713-2.63 0.88v0c-1.667 0.267-3.89 0.4-6.67 0.4-2.787 0-5.597-0.383-8.43-1.15v0l2.45-7.4c2.6 0.733 4.877 1.1 6.83 1.1 1.947 0 3.32-0.05 4.12-0.15v0l0.25-1.6-3.15-0.35c-2.7-0.3-4.617-0.933-5.75-1.9-1.133-0.967-1.7-2.35-1.7-4.15v0c0-0.667 0.083-1.5 0.25-2.5v0c0.667-3.567 1.867-6.033 3.6-7.4 1.733-1.367 4.377-2.05 7.93-2.05 3.547 0 6.72 0.35 9.52 1.05z" fill="#ffffff" fill-rule="nonzero" stroke="none" stroke-width="1" stroke-linecap="butt" stroke-linejoin="miter" stroke-miterlimit="10" stroke-dasharray="" stroke-dashoffset="0" font-family="none" font-weight="none" font-size="none" text-anchor="none" style="mix-blend-mode: normal" data-fill-palette-color="quaternary" opacity="1"></path></g></svg></g></svg></g></svg></g></svg></g><g><svg viewBox="0 0 244.43135999999998 194.05187130054313" height="194.05187130054313" width="244.43135999999998"><g><svg xmlns="http://www.w3.org/2000/svg" xmlns:xlink="http://www.w3.org/1999/xlink" version="1.1" x="0" y="0" viewBox="0 3.9563492063492065 49.976190476190474 39.675650793650796" enable-background="new 0 0 50.4 50.4" xml:space="preserve" width="244.43135999999998" height="194.05187130054313" class="icon-icon-0" data-fill-palette-color="accent" id="icon-0"><g fill="#ff4136" data-fill-palette-color="accent"><path d="M17.936 39.499c0 0-0.359 4.133 4.768 4.133h8.186c5.141 0 4.769-4.133 4.769-4.133H17.936z" fill="#ff4136" data-fill-palette-color="accent"></path><path d="M34.891 37.977c0.842 0 1.523-0.623 1.523-1.389 0-0.76-0.682-1.377-1.523-1.377H18.633c-0.834 0-1.519 0.617-1.519 1.377 0 0.766 0.684 1.389 1.519 1.389H34.891z" fill="#ff4136" data-fill-palette-color="accent"></path><polygon points="30.431,22.207 19.653,22.207 19.653,21.206 30.431,21.206 30.431,22.207  " fill="#ff4136" data-fill-palette-color="accent"></polygon><polygon points="27.774,18.77 20.122,18.77 20.122,17.769 27.774,17.769 27.774,18.77  " fill="#ff4136" data-fill-palette-color="accent"></polygon><g fill="#ff4136" data-fill-palette-color="accent"><polygon points="16.949,17.769 17.273,15.16 13.983,15.152 16.737,4.433 15.07,3.988 12.233,15.16 0,15.16 0.323,17.769   " fill="#ff4136" data-fill-palette-color="accent"></polygon><polygon points="0.447,18.77 3.509,43.52 13.749,43.52 16.825,18.77   " fill="#ff4136" data-fill-palette-color="accent"></polygon></g><polygon points="36.473,25.538 19.185,25.538 19.185,24.538 36.473,24.538 36.473,25.538  " fill="#ff4136" data-fill-palette-color="accent"></polygon><polygon points="47.219,33.453 38.054,33.453 38.054,32.452 47.219,32.452 47.219,33.453  " fill="#ff4136" data-fill-palette-color="accent"></polygon><polygon points="45.084,40.327 38.21,40.327 38.21,39.326 45.084,39.326 45.084,40.327  " fill="#ff4136" data-fill-palette-color="accent"></polygon><polygon points="50.376,36.785 38.991,36.785 38.991,35.784 50.376,35.784 50.376,36.785  " fill="#ff4136" data-fill-palette-color="accent"></polygon><path d="M30.892 28.266h-8.188c-5.127 0-4.768 5.483-4.768 5.483h17.723C35.659 33.749 36.03 28.266 30.892 28.266zM21.447 32.291c-0.317 0-0.575-0.256-0.575-0.573s0.257-0.576 0.575-0.576c0.318 0 0.576 0.259 0.576 0.576S21.765 32.291 21.447 32.291zM23.366 30.873c-0.317 0-0.575-0.259-0.575-0.576s0.258-0.576 0.575-0.576c0.318 0 0.576 0.259 0.576 0.576S23.685 30.873 23.366 30.873zM25.17 32.291c-0.317 0-0.575-0.256-0.575-0.573s0.258-0.576 0.575-0.576c0.318 0 0.575 0.259 0.575 0.576S25.488 32.291 25.17 32.291zM27.306 30.873c-0.317 0-0.575-0.259-0.575-0.576s0.258-0.576 0.575-0.576 0.575 0.259 0.575 0.576S27.623 30.873 27.306 30.873zM28.911 32.291c-0.317 0-0.575-0.256-0.575-0.573s0.258-0.576 0.575-0.576 0.575 0.259 0.575 0.576S29.229 32.291 28.911 32.291zM31.005 30.873c-0.316 0-0.574-0.259-0.574-0.576s0.258-0.576 0.574-0.576c0.318 0 0.576 0.259 0.576 0.576S31.323 30.873 31.005 30.873zM32.426 32.291c-0.317 0-0.575-0.256-0.575-0.573s0.258-0.576 0.575-0.576c0.316 0 0.575 0.259 0.575 0.576S32.742 32.291 32.426 32.291z" fill="#ff4136" data-fill-palette-color="accent"></path></g></svg></g></svg></g></svg></g><defs></defs></svg><rect width="395.5199999999999" height="117.76108705727901" fill="none" stroke="none" visibility="hidden"></rect></g></svg></g></svg>